HIERARCHY
ROOT hips
{
  OFFSET 0 10.6860622 2.3727825e-15
  CHANNELS 6 Xposition Yposition Zposition Yrotation Xrotation Zrotation
  JOINT leftUpperLeg
  {
    OFFSET 0.6642549969 -0.9402397400000004 0
    CHANNELS 3 Yrotation Xrotation Zrotation
    JOINT leftLowerLeg
    {
      OFFSET 0 -3.997221335632195 0
      CHANNELS 3 Yrotation Xrotation Zrotation
      JOINT leftFoot
      {
        OFFSET -0.13777839790000004 -4.6145792000000005 -0.22186036399999998
        CHANNELS 3 Yrotation Xrotation Zrotation
        JOINT leftToes
        {
          OFFSET -0.03777410834999995 -0.9130806927000008 0.85230013
          CHANNELS 3 Yrotation Xrotation Zrotation
          End Site
          {
            OFFSET -0.03777410834999995 -0.9130806927000008 0.85230013
          }
        }
      }
    }
  }
  JOINT rightUpperLeg
  {
    OFFSET -0.6642778626 -0.9402397400000004 0
    CHANNELS 3 Yrotation Xrotation Zrotation
    JOINT rightLowerLeg
    {
      OFFSET 0 -3.997221452859387 0
      CHANNELS 3 Yrotation Xrotation Zrotation
      JOINT rightFoot
      {
        OFFSET 0.1377926176 -4.6145792000000005 -0.22185782299999995
        CHANNELS 3 Yrotation Xrotation Zrotation
        JOINT rightToes
        {
          OFFSET 0.037780746850000047 -0.9130806927000008 0.85230167
          CHANNELS 3 Yrotation Xrotation Zrotation
          End Site
          {
            OFFSET 0.037780746850000047 -0.9130806927000008 0.85230167
          }
        }
      }
    }
  }
  JOINT spine
  {
    OFFSET 0 0.13988381660000015 0
    CHANNELS 3 Yrotation Xrotation Zrotation
    JOINT chest
    {
      OFFSET 0 0.6191039003973773 0
      CHANNELS 3 Yrotation Xrotation Zrotation
      JOINT upperChest
      {
        OFFSET 0 0.9855186130586943 0
        CHANNELS 3 Yrotation Xrotation Zrotation
        JOINT leftShoulder
        {
          OFFSET 0.1807663869 1.5087829790000005 0
          CHANNELS 3 Yrotation Xrotation Zrotation
          JOINT leftUpperArm
          {
            OFFSET 0.5985063006419806 0 0
            CHANNELS 3 Yrotation Xrotation Zrotation
            JOINT leftLowerArm
            {
              OFFSET 2.2993332369501065 0 0
              CHANNELS 3 Yrotation Xrotation Zrotation
              JOINT leftHand
              {
                OFFSET 2.395047042602395 0 0
                CHANNELS 3 Yrotation Xrotation Zrotation
                JOINT leftIndexProximal
                {
                  OFFSET 0.5766295810000004 0.04556643899499946 0.17265095988184
                  CHANNELS 3 Yrotation Xrotation Zrotation
                  JOINT leftIndexIntermediate
                  {
                    OFFSET 0.2957229000000008 -0.019352197700001517 -0.007932640616999987
                    CHANNELS 3 Yrotation Xrotation Zrotation
                    JOINT leftIndexDistal
                    {
                      OFFSET 0.19008243099999922 -0.012484908149998475 -0.002786250786000012
                      CHANNELS 3 Yrotation Xrotation Zrotation
                      End Site
                      {
                        OFFSET 0.19008243099999922 -0.012484908149998475 -0.002786250786000012
                      }
                    }
                  }
                }
                JOINT leftMiddleProximal
                {
                  OFFSET 0.5834975091000001 0.0524350405149987 0.02204081888183999
                  CHANNELS 3 Yrotation Xrotation Zrotation
                  JOINT leftMiddleIntermediate
                  {
                    OFFSET 0.33880573540000003 -0.019871473270000717 -0.00000971183179999946
                    CHANNELS 3 Yrotation Xrotation Zrotation
                    JOINT leftMiddleDistal
                    {
                      OFFSET 0.20676022730000088 -0.012221336379999448 0.0001471936708000235
                      CHANNELS 3 Yrotation Xrotation Zrotation
                      End Site
                      {
                        OFFSET 0.20676022730000088 -0.012221336379999448 0.0001471936708000235
                      }
                    }
                  }
                }
                JOINT leftLittleProximal
                {
                  OFFSET 0.5344154683999995 -0.012880921405001189 -0.24414037221816004
                  CHANNELS 3 Yrotation Xrotation Zrotation
                  JOINT leftLittleIntermediate
                  {
                    OFFSET 0.21758961730000093 -0.011650919939999227 0.011893592810000034
                    CHANNELS 3 Yrotation Xrotation Zrotation
                    JOINT leftLittleDistal
                    {
                      OFFSET 0.1475273964999999 -0.008152365682999818 0.006001092492999946
                      CHANNELS 3 Yrotation Xrotation Zrotation
                      End Site
                      {
                        OFFSET 0.1475273964999999 -0.008152365682999818 0.006001092492999946
                      }
                    }
                  }
                }
                JOINT leftRingProximal
                {
                  OFFSET 0.5799399463000003 0.026911854694997794 -0.12150566991816003
                  CHANNELS 3 Yrotation Xrotation Zrotation
                  JOINT leftRingIntermediate
                  {
                    OFFSET 0.26167887460000006 -0.013480186499999602 0.010996293000000053
                    CHANNELS 3 Yrotation Xrotation Zrotation
                    JOINT leftRingDistal
                    {
                      OFFSET 0.17667108799999987 -0.008990287899999228 0.0055541023999999065
                      CHANNELS 3 Yrotation Xrotation Zrotation
                      End Site
                      {
                        OFFSET 0.17667108799999987 -0.008990287899999228 0.0055541023999999065
                      }
                    }
                  }
                }
                JOINT leftThumbProximal
                {
                  OFFSET 0.11018806699999972 -0.09448718900500053 0.17047963138184
                  CHANNELS 3 Yrotation Xrotation Zrotation
                  JOINT leftThumbIntermediate
                  {
                    OFFSET 0.31062601459999983 -0.08126270900000132 0.15443142000000007
                    CHANNELS 3 Yrotation Xrotation Zrotation
                    JOINT leftThumbDistal
                    {
                      OFFSET 0.21627175790000086 -0.08833193599999878 0.018771167799999988
                      CHANNELS 3 Yrotation Xrotation Zrotation
                      End Site
                      {
                        OFFSET 0.21627175790000086 -0.08833193599999878 0.018771167799999988
                      }
                    }
                  }
                }
              }
            }
          }
        }
        JOINT neck
        {
          OFFSET 0 1.5463305265074576 0
          CHANNELS 3 Yrotation Xrotation Zrotation
          JOINT head
          {
            OFFSET 0 0.8456443600000344 0
            CHANNELS 3 Yrotation Xrotation Zrotation
            JOINT leftEye
            {
              OFFSET 0.30408573140000006 0.5104519199999995 0.1276382305
              CHANNELS 3 Yrotation Xrotation Zrotation
              End Site
              {
                OFFSET 0.30408573140000006 0.5104519199999995 0.1276382305
              }
            }
            JOINT rightEye
            {
              OFFSET -0.30409491089999996 0.5104519199999995 0.1276379445
              CHANNELS 3 Yrotation Xrotation Zrotation
              End Site
              {
                OFFSET -0.30409491089999996 0.5104519199999995 0.1276379445
              }
            }
            JOINT jaw
            {
              OFFSET -3.155239131000001e-7 -0.11984121820000082 0.60178107
              CHANNELS 3 Yrotation Xrotation Zrotation
              End Site
              {
                OFFSET -3.155239131000001e-7 -0.11984121820000082 0.60178107
              }
            }
          }
        }
        JOINT rightShoulder
        {
          OFFSET -0.1807303465 1.5087829790000005 0
          CHANNELS 3 Yrotation Xrotation Zrotation
          JOINT rightUpperArm
          {
            OFFSET -0.5985063796536958 0 0
            CHANNELS 3 Yrotation Xrotation Zrotation
            JOINT rightLowerArm
            {
              OFFSET -2.2993322059002854 0 0
              CHANNELS 3 Yrotation Xrotation Zrotation
              JOINT rightHand
              {
                OFFSET -2.395045314457259 0 0
                CHANNELS 3 Yrotation Xrotation Zrotation
                JOINT rightIndexProximal
                {
                  OFFSET -0.5764487688300002 0.0441371204405987 0.17361932004999997
                  CHANNELS 3 Yrotation Xrotation Zrotation
                  JOINT rightIndexIntermediate
                  {
                    OFFSET -0.29573011380000047 -0.01934826376999843 -0.007698921482999974
                    CHANNELS 3 Yrotation Xrotation Zrotation
                    JOINT rightIndexDistal
                    {
                      OFFSET -0.19008373999999884 -0.012503266380000655 -0.0026365778999999897
                      CHANNELS 3 Yrotation Xrotation Zrotation
                      End Site
                      {
                        OFFSET -0.19008373999999884 -0.012503266380000655 -0.0026365778999999897
                      }
                    }
                  }
                }
                JOINT rightMiddleProximal
                {
                  OFFSET -0.5834852037300005 0.05211639405060153 0.02307162440000001
                  CHANNELS 3 Yrotation Xrotation Zrotation
                  JOINT rightMiddleIntermediate
                  {
                    OFFSET -0.33880114510000003 -0.019952774050000954 0.0002455003561999819
                    CHANNELS 3 Yrotation Xrotation Zrotation
                    JOINT rightMiddleDistal
                    {
                      OFFSET -0.20675694929999955 -0.012273788999999091 0.00030209124000002766
                      CHANNELS 3 Yrotation Xrotation Zrotation
                      End Site
                      {
                        OFFSET -0.20675694929999955 -0.012273788999999091 0.00030209124000002766
                      }
                    }
                  }
                }
                JOINT rightLittleProximal
                {
                  OFFSET -0.5346811737299992 -0.011214256288399227 -0.24363941305000003
                  CHANNELS 3 Yrotation Xrotation Zrotation
                  JOINT rightLittleIntermediate
                  {
                    OFFSET -0.21757715980000092 -0.011771559690000988 0.01201554387
                    CHANNELS 3 Yrotation Xrotation Zrotation
                    JOINT rightLittleDistal
                    {
                      OFFSET -0.1475201849000004 -0.00822055339600003 0.006082065407000015
                      CHANNELS 3 Yrotation Xrotation Zrotation
                      End Site
                      {
                        OFFSET -0.1475201849000004 -0.00822055339600003 0.006082065407000015
                      }
                    }
                  }
                }
                JOINT rightRingProximal
                {
                  OFFSET -0.5800810755299999 0.027657985680600072 -0.12066365025000003
                  CHANNELS 3 Yrotation Xrotation Zrotation
                  JOINT rightRingIntermediate
                  {
                    OFFSET -0.26166445029999974 -0.013623118409999302 0.011164098990000045
                    CHANNELS 3 Yrotation Xrotation Zrotation
                    JOINT rightRingDistal
                    {
                      OFFSET -0.17666387530000027 -0.009072900100000503 0.005668185599999959
                      CHANNELS 3 Yrotation Xrotation Zrotation
                      End Site
                      {
                        OFFSET -0.17666387530000027 -0.009072900100000503 0.005668185599999959
                      }
                    }
                  }
                }
                JOINT rightThumbProximal
                {
                  OFFSET -0.10997596379000074 -0.09577489355940072 0.16989765924999997
                  CHANNELS 3 Yrotation Xrotation Zrotation
                  JOINT rightThumbIntermediate
                  {
                    OFFSET -0.31036620999999986 -0.08229339117999834 0.15440884469999996
                    CHANNELS 3 Yrotation Xrotation Zrotation
                    JOINT rightThumbDistal
                    {
                      OFFSET -0.21631306399999906 -0.08825326400000111 0.018656797720000014
                      CHANNELS 3 Yrotation Xrotation Zrotation
                      End Site
                      {
                        OFFSET -0.21631306399999906 -0.08825326400000111 0.018656797720000014
                      }
                    }
                  }
                }
              }
            }
          }
        }
      }
    }
  }
}
MOTION
Frames: 8
Frame Time: 0.03333333333333333
0 11.682712981546562 0 0 0 0 0 0 -5.826343164929014 -0.3712483961610101 -3.6333298826370974 5.838118207697276 0 0 0 0 0 0 0 0 5.826343164929014 0.3712483961610101 -3.6333298826370974 -5.838118207697276 0 0 0 0 0 0 0 -4.610651315171937 0 0 3.0831277533083026 0 0 0 0 0 1.5275236235667615 0 0 0 0 0 0 0 0 0 0 0 0 0 0 0 0 0 0 0 0 0 0 0 0 0 0 0 0 0 0 0 0 0 0 0 0 0 0 0 0 0 0 0 0 0 0 0 0 0 0 0 0 0 0 0 0 1.5275236235667615 0 0 0 0 0 0 0 0 0 0 0 0 0 0 1.5275236235667615 0 0 0 0 0 0 0 0 0 0 0 0 0 0 0 0 0 0 0 0 0 0 0 0 0 0 0 0 0 0 0 0 0 0 0 0 0 0 0 0 0 0 0 0 0 0 0 0 0 0 0 0 0 0 0
5.366740723532839 -5.727914055891255 3.410947186674195 -0.016101173755930377 -75.00474789902209 -179.98764011550674 38.92561295075776 -3.8696084904063257 35.43526525343226 -21.455027307395877 63.66463194638799 27.11898556545292 -15.193907546961958 8.725462381363355 -29.32012164457496 0 0 0 -39.22113190549202 -2.999386517215373 -34.91439869481579 22.586890819286047 62.96439630798162 -27.041008411794728 14.2261353606489 9.167707093355238 30.34348622441929 0 0 0 0.00004209097213914498 4.216036365580711 -0.012236138068661893 0.5494874463196 15.1957905837204 -0.4469893381544668 0 0 0 1.7014006539922433 0.9556175449394919 -20.510939247514155 -0.5915550243739057 -12.873854011636045 -5.730332693109245 -82.49645550793315 42.824605787842486 -77.06549202573854 4.73732614462325 10.660204691865056 -7.580909175044122 0 0 0 0 0 0 0 0 0 0 0 0 0 0 0 0 0 0 0 0 0 0 0 0 0 0 0 0 0 0 0 0 0 0 0 0 0 0 0 0 0 0 0 0 0 0 17.52098252285569 0 0 3.9927490196685747 0 0 0 0 0 0 0 0 0 0 -1.3247502976765224 0.7350003801461285 21.232281818735053 0.46423770217204574 -12.875324464614149 5.452209596081355 82.35970380227674 43.225225259447456 76.89653404310403 -4.502301605388704 10.805905925383499 7.738358874264313 0 0 0 0 0 0 0 0 0 0 0 0 0 0 0 0 0 0 0 0 0 0 0 0 0 0 0 0 0 0 0 0 0 0 0 0 0 0 0 0 0 0 0 0 0
5.366740723532839 -5.727914055891255 3.410947186674195 -0.016102249484973612 -75.0057774551052 -179.98763850180313 39.01485473232082 -4.0815937550169235 35.53559502585679 -21.455027307395877 63.66463194638799 27.11898556545292 -15.389561283735093 8.731775732863241 -29.160784739694687 0 0 0 -39.31648970885805 -3.2853789319080873 -35.05954000050177 22.529771805981063 62.990727012174986 -27.015712589748865 14.498097860584402 9.158352451314883 30.110809246534643 0 0 0 -0.00003126439230934004 4.215651553095939 -0.012379357654843933 0.5503757842109717 15.556195951980445 -0.4433766125816914 0 0 0 1.5984807813349569 0.8731396511432744 -20.444835463152057 -0.5915550243739057 -12.873854011636045 -5.730332693109245 -82.49302925028212 42.83575859057258 -77.06376252078888 4.769752158998306 10.451428524796619 -7.352545846000905 0 0 0 0 0 0 0 0 0 0 0 0 0 0 0 0 0 0 0 0 0 0 0 0 0 0 0 0 0 0 0 0 0 0 0 0 0 0 0 0 0 0 0 0 0 0.24352499810004835 17.479783240035513 0.06105736664900544 0 3.8788610622803237 0 0 0 0 0 0 0 0 0 0 -1.2327276355733296 0.6583087032049687 21.14561577670139 0.46423770217204574 -12.875324464614149 5.452209596081355 82.35970380227674 43.225225259447456 76.89653404310403 -4.541999770801472 10.593601840772306 7.504954928350254 0 0 0 0 0 0 0 0 0 0 0 0 0 0 0 0 0 0 0 0 0 0 0 0 0 0 0 0 0 0 0 0 0 0 0 0 0 0 0 0 0 0 0 0 0
5.366740723532839 -5.727914055891255 3.410947186674195 -0.0161033272128439 -75.00680708026462 -179.9876368878839 39.103748335291336 -4.2937343181301095 35.635621463481215 -21.455027307395877 63.66463194638799 27.11898556545292 -15.585201106371937 8.738626474993678 -29.00146919808341 0 0 0 -39.41114940128514 -3.5716113581597404 -35.20424780843601 22.472627726411552 63.01705889643601 -26.99045227525845 14.77009059488486 9.15008767385841 29.878095632264575 0 0 0 -0.00010462122803166763 4.215266312756954 -0.012522576163175226 0.5512892584257889 15.916601418582339 -0.43975165465152805 0 0 0 1.495468063036556 0.7907807049883998 -20.37858588782705 -0.5915550243739057 -12.873854011636045 -5.730332693109245 -82.48960172382095 42.8469180644494 -77.06203239121692 4.80131071189911 10.242526239852674 -7.124454181156806 0 0 0 0 0 0 0 0 0 0 0 0 0 0 0 0 0 0 0 0 0 0 0 0 0 0 0 0 0 0 0 0 0 0 0 0 0 0 0 0 0 0 0 0 0 0.48694864880409927 17.438337341757258 0.12191679556255462 0 3.764973050637476 0 0 0 0 0 0 0 0 0 0 -1.1405903479926867 0.581756417483584 21.058830125733863 0.46423770217204574 -12.875324464614149 5.452209596081355 82.35970380227674 43.225225259447456 76.89653404310403 -4.580790775387811 10.381140124257628 7.271860725602917 0 0 0 0 0 0 0 0 0 0 0 0 0 0 0 0 0 0 0 0 0 0 0 0 0 0 0 0 0 0 0 0 0 0 0 0 0 0 0 0 0 0 0 0 0
5.366740723532839 -5.727914055891255 3.410947186674195 -0.0161033272128439 -75.00680708026462 -179.9876368878839 39.2805355005847 -4.718593301622081 35.83482113116604 -21.455033963511443 63.66464734272218 27.11898063459118 -15.976569010237586 8.753943707740703 -28.682793959295708 0 0 0 -39.598483545125475 -4.145097095618617 -35.49254307822993 22.35823425744775 63.06975640190288 -26.940044899366285 15.314545351659621 9.136822229666047 29.41224598081012 0 0 0 -0.00025133313912123397 4.214498400917445 -0.012809009494885474 0.5531939104538806 16.637872692944757 -0.43245956156743326 0 0 0 1.2891404800323496 0.6264027773268659 -20.24562780142118 -0.5915550243739057 -12.873854011636045 -5.730332693109245 -82.48270654338874 42.86922908391622 -77.05854659863625 4.861861474467336 9.824168589048423 -6.6688532558417695 0 0 0 0 0 0 0 0 0 0 0 0 0 0 0 0 0 0 0 0 0 0 0 0 0 0 0 0 0 0 0 0 0 0 0 0 0 0 0 0 0 0 0 0 0 0.9740661666534581 17.35460967989139 0.24318034998181406 0 3.5371360424679605 0 0 0 0 0 0 0 0 0 0 -0.9559521534744895 0.4290538685972757 20.884874872666234 0.46423781164263883 -12.875323588820649 5.452209596081355 82.35969853399298 43.22522994621644 76.89653183938148 -4.655697333142037 9.955552244088782 6.806348101832081 0 0 0 0 0 0 0 0 0 0 0 0 0 0 0 0 0 0 0 0 0 0 0 0 0 0 0 0 0 0 0 0 0 0 0 0 0 0 0 0 0 0 0 0 0
5.366740723532839 -5.727914055891255 3.410947186674195 -0.0161033272128439 -75.00680708026462 -179.9876368878839 39.3684406599331 -4.931312762013428 35.93400282878683 -21.45503153104333 63.66463964455404 27.118982222739756 -16.172288444709842 8.76241285665973 -28.523441150502435 0 0 0 -39.69116835745501 -4.4323307888745616 -35.636138469845655 22.30099536296836 63.09612209539695 -26.91489464917997 15.586976941364917 9.131828358977621 29.179140199932778 0 0 0 -0.0003246894399735549 4.214114445282105 -0.012952225075251138 0.5541854472534637 16.998708172975586 -0.4287919458549259 0 0 0 1.1858267705586167 0.5443857401470977 -20.178921505715962 -0.5915549696400506 -12.873854887424411 -5.730332693109245 -82.47927234042278 42.88038528797623 -77.05681250102813 4.8908547387433225 9.614730882024114 -6.441344373074367 0 0 0 0 0 0 0 0 0 0 0 0 0 0 0 0 0 0 0 0 0 0 0 0 0 0 0 0 0 0 0 0 0 0 0 0 0 0 0 0 0 0 0 0 0 1.2177500262228218 17.312331831298522 0.3035794789206152 0 3.4231870162597255 0 0 0 0 0 0 0 0 0 0 -0.8634522981190945 0.3529067132981164 20.79770553428396 0.46423781164263883 -12.875323588820649 5.452209596081355 82.35969679205748 43.22522994621644 76.89652955701341 -4.691812212177703 9.74245055488065 6.573932902493755 0 0 0 0 0 0 0 0 0 0 0 0 0 0 0 0 0 0 0 0 0 0 0 0 0 0 0 0 0 0 0 0 0 0 0 0 0 0 0 0 0 0 0 0 0
5.366740723532839 -5.727914055891255 3.410947186674195 -0.0161033272128439 -75.00680708026462 -179.9876368878839 39.45600515510211 -5.144183536186369 36.03288853602646 -21.455027307395877 63.66463194638799 27.11898556545292 -16.367987046473605 8.771419529682746 -28.364114386884534 0 0 0 -39.78316521905886 -4.719795220696192 -35.779324449303495 22.243730478224432 63.12249661314405 -26.889781811962553 15.859424833492266 9.127928432430364 28.946012437291678 0 0 0 -0.0003980447562767916 4.21373048983635 -0.013095439682480572 0.5552031900448257 17.359543773791906 -0.42511066167202016 0 0 0 1.0824188746103938 0.46248924396523683 -20.112068606342028 -0.5915549149061955 -12.873854887424411 -5.730332693109245 -82.47583805020892 42.8915481709302 -77.05507559622625 4.918986733568127 9.40518220186647 -6.214082409439387 0 0 0 0 0 0 0 0 0 0 0 0 0 0 0 0 0 0 0 0 0 0 0 0 0 0 0 0 0 0 0 0 0 0 0 0 0 0 0 0 0 0 0 0 0 1.4613309718319512 17.269807997010236 0.3637758292624886 0 3.3092380748235892 0 0 0 0 0 0 0 0 0 0 -0.7708373418317402 0.27690046865763274 20.71041269702201 0.4642380305838249 -12.875323588820649 5.4522082883345355 82.35969505012197 43.22522994621644 76.89652613346136 -4.727027182102884 9.529206103029873 6.341801026390665 0 0 0 0 0 0 0 0 0 0 0 0 0 0 0 0 0 0 0 0 0 0 0 0 0 0 0 0 0 0 0 0 0 0 0 0 0 0 0 0 0 0 0 0 0
5.366740723532839 -5.727914055891255 3.410947186674195 -0.0161033272128439 -75.00680708026462 -179.9876368878839 39.63016456484263 -5.57047203177909 36.22983184045967 -21.455027307395877 63.66463194638799 27.11898556545292 -16.7594201612391 8.791052519117141 -28.045458551242383 0 0 0 -39.96518187060581 -5.2956350564689085 -36.06459231285796 22.129127198943713 63.175294943752945 -26.83965157191078 16.404644178168503 9.123406819321541 28.47946805674603 0 0 0 -0.0005447560864064575 4.212961295383192 -0.013381866013769063 0.5573188137892882 18.081553060341477 -0.4177005760950035 0 0 0 0.8753028958772496 0.29904667640709054 -19.977913506939437 -0.5915553527770363 -12.87385313584768 -5.730331385991381 -82.46894782740077 42.91385202253589 -77.0515884479358 4.972691453459467 8.9856136028712 -5.760114830241906 0 0 0 0 0 0 0 0 0 0 0 0 0 0 0 0 0 0 0 0 0 0 0 0 0 0 0 0 0 0 0 0 0 0 0 0 0 0 0 0 0 0 0 0 0 1.9487266127533047 17.183931805519574 0.48369005200527987 0 3.0812819994153005 0 0 0 0 0 0 0 0 0 0 -0.5852455447596613 0.1252994132693328 20.53544149483857 0.46423770217204574 -12.875324464614149 5.452209596081355 82.35970380227674 43.225225259447456 76.89653404310403 -4.794790662705823 9.102146752918097 5.878193450826403 0 0 0 0 0 0 0 0 0 0 0 0 0 0 0 0 0 0 0 0 0 0 0 0 0 0 0 0 0 0 0 0 0 0 0 0 0 0 0 0 0 0 0 0 0
